<svg width="30" height="30" viewBox="0 0 30 30" fill="none" xmlns="http://www.w3.org/2000/svg">
<path fill-rule="evenodd" clip-rule="evenodd" d="M27.986 15.0002C27.986 7.99041 21.656 2.00018 14.3359 2.00018C9.64811 2.00018 5.16985 4.97883 2.81204 8.50018L6.3364 8.50018L9.51615 8.50018C10.1816 8.50018 10.8677 8.86291 10.8677 9.50018C10.8677 10.1374 10.1816 10.4668 9.51614 10.4668L1.3016 10.4668C0.636002 10.4668 0.798124 10.0002 0.798124 9.50018L0.798124 1.15403C0.798124 0.516783 1.13948 0.000183105 1.80508 0.000183105C2.47044 0.000183105 2.81204 0.516783 2.81204 1.15403L2.5777 5.89294C5.44904 2.52855 9.44144 0.000183105 14.3359 0.000183105C22.9869 0.000183105 29.9999 6.71591 29.9999 15.0002C29.9999 23.2846 22.9869 30.0002 14.3359 30.0002C10.3248 30.0002 6.66336 28.5549 3.89275 26.1805C2.29814 24.8136 0.9973 23.1383 0.0926397 21.2508C-0.184976 20.6716 0.19325 20.266 0.798124 20.0002C1.40276 19.7343 1.92341 19.9212 2.20102 20.5002C2.96591 22.0962 3.97823 23.3422 5.32944 24.5002C7.67495 26.5106 10.9404 28.0002 14.3359 28.0002C21.656 28.0002 27.986 22.01 27.986 15.0002Z" fill="white"/>
</svg>
