<svg width="30" height="30" viewBox="0 0 30 30" fill="none" xmlns="http://www.w3.org/2000/svg">
<path d="M1.40604 0.0147847C1.01063 0.0683834 0.650952 0.242177 0.392792 0.504336C0.134632 0.766495 -0.0047539 1.0995 0.000123814 1.44248V28.5688C-0.000573504 28.8219 0.0772606 29.0706 0.225653 29.2894C0.374045 29.5083 0.58766 29.6894 0.844622 29.8142C1.10158 29.9391 1.39266 30.0031 1.68803 29.9999C1.9834 29.9966 2.27244 29.9261 2.52557 29.7957L29.1859 16.2325C29.4341 16.106 29.6395 15.9264 29.7823 15.7113C29.925 15.4962 30 15.253 30 15.0056C30 14.7582 29.925 14.515 29.7823 14.3C29.6395 14.0849 29.4341 13.9052 29.1859 13.7787L2.52557 0.215511C2.19172 0.0375287 1.79517 -0.0335656 1.40604 0.0147847ZM2 2L28 15.0056L2 28L2 15.0056L2 2Z" fill="white"/>
</svg>
